<?xml version="1.0" encoding="UTF-8"?>
<svg width="24px" height="22px" viewBox="0 0 24 22" version="1.1" xmlns="http://www.w3.org/2000/svg" xmlns:xlink="http://www.w3.org/1999/xlink">
    <!-- Generator: Sketch 58 (84663) - https://sketch.com -->
    <title>ic_class</title>
    <desc>Created with Sketch.</desc>
    <g id="Page-1" stroke="none" stroke-width="1" fill="none" fill-rule="evenodd">
        <g id="ic_class" fill="#FFFFFF" fill-rule="nonzero">
            <path d="M22.2,1.16291 C21.6299,0.68727 20.9611,0.34456 20.242,0.15965 C19.523,-0.025256 18.7718,-0.047713 18.043,0.09391 L16.279,0.52591 C15.3584,0.69461 14.5262,1.18075 13.9271,1.89973 C13.3279,2.61872 12.9999,3.52502 13,4.46091 L13,19.9279 C12.3369,20.0249 11.6631,20.0249 11,19.9279 L11,4.46091 C11.0033,3.53365 10.6828,2.63432 10.0939,1.91812 C9.50493,1.20191 8.68444,0.71376 7.774,0.53791 L5.9,0.08191 C5.17916,-0.049995 4.43813,-0.021839 3.72938,0.16439 C3.02062,0.35061 2.36146,0.69035 1.79857,1.15956 C1.23567,1.62877 0.782786,2.21598 0.471982,2.87962 C0.161178,3.54326 0,4.2671 0,4.99991 L0,15.7929 C0,16.9637 0.410977,18.0974 1.16113,18.9963 C1.91129,19.8952 2.95311,20.5023 4.105,20.7119 L10.391,21.8549 C11.455,22.0482 12.545,22.0482 13.609,21.8549 L19.9,20.7119 C21.051,20.5013 22.0916,19.8937 22.8408,18.9949 C23.5899,18.0961 24,16.963 24,15.7929 L24,4.99991 C24.0005,4.26736 23.8394,3.54371 23.5283,2.8805 C23.2171,2.2173 22.7636,1.63085 22.2,1.16291 Z" id="Path"></path>
        </g>
    </g>
</svg>