<?xml version="1.0" encoding="UTF-8"?>
<svg width="36px" height="45px" viewBox="0 0 36 45" version="1.1" xmlns="http://www.w3.org/2000/svg" xmlns:xlink="http://www.w3.org/1999/xlink">
    <!-- Generator: Sketch 58 (84663) - https://sketch.com -->
    <title>Group</title>
    <desc>Created with Sketch.</desc>
    <g id="Page-1" stroke="none" stroke-width="1" fill="none" fill-rule="evenodd">
        <g id="Group">
            <path d="M3.05843,13.40463 L15.0584,6.65463 C16.8849,5.627236 19.1151,5.627234 20.9416,6.65463 L32.9416,13.40463 C34.8308,14.46734 36,16.4664 36,18.6341 L36,31.8659 C36,34.0336 34.8308,36.0327 32.9416,37.0954 L20.9416,43.8454 C19.1151,44.8728 16.8849,44.8728 15.0584,43.8454 L3.05843,37.0954 C1.16917,36.0327 0,34.0336 0,31.8659 L0,18.6341 C0,16.4664 1.16917,14.46734 3.05843,13.40463 Z" id="Path" fill="#F7931A" fill-rule="nonzero"></path>
            <path d="M12.1667,19.1666 L13.8334,19.1666 L13.8334,20.8333 L12.1667,20.8333 L12.1667,19.1666 Z M8.83337,15.8333 L17.1667,15.8333 L17.1667,24.1666 L8.83337,24.1666 L8.83337,15.8333 Z M10.5,17.4999 L10.5,22.4999 L15.5,22.4999 L15.5,17.4999 L10.5,17.4999 Z M12.1667,29.1666 L13.8334,29.1666 L13.8334,30.8333 L12.1667,30.8333 L12.1667,29.1666 Z M8.83337,25.8333 L17.1667,25.8333 L17.1667,34.1666 L8.83337,34.1666 L8.83337,25.8333 Z M10.5,27.4999 L10.5,32.4999 L15.5,32.4999 L15.5,27.4999 L10.5,27.4999 Z M18.8334,25.8333 L22.1667,25.8333 L22.1667,27.4999 L23.8334,27.4999 L23.8334,25.8333 L27.1667,25.8333 L27.1667,27.4999 L23.8334,27.4999 L23.8334,29.1666 L27.1667,29.1666 L27.1667,34.1666 L23.8334,34.1666 L23.8334,32.4999 L20.5,32.4999 L20.5,34.1666 L18.8334,34.1666 L18.8334,32.4999 L20.5,32.4999 L20.5,30.8333 L18.8334,30.8333 L18.8334,25.8333 Z M25.5,32.4999 L25.5,30.8333 L23.8334,30.8333 L23.8334,32.4999 L25.5,32.4999 Z M23.8334,29.1666 L22.1667,29.1666 L22.1667,27.4999 L20.5,27.4999 L20.5,30.8333 L23.8334,30.8333 L23.8334,29.1666 Z M22.1667,16.6666 L22.1667,19.1666 L19.6667,19.1666 L19.6667,20.8333 L22.1667,20.8333 L22.1667,23.3333 L23.8334,23.3333 L23.8334,20.8333 L26.3334,20.8333 L26.3334,19.1666 L23.8334,19.1666 L23.8334,16.6666 L22.1667,16.6666 Z" id="Shape" fill="#FCFCFE" fill-rule="nonzero"></path>
            <rect id="Rectangle" fill-opacity="0.00" fill="#D8D8D8" x="0" y="0" width="36" height="6"></rect>
        </g>
    </g>
</svg>