<svg width="24" height="24" viewBox="0 0 24 24" fill="none" xmlns="http://www.w3.org/2000/svg">
<g clip-path="url(#clip0)">
<path d="M23.2711 9.41909C22.3683 7.94082 21.2296 6.62035 19.9001 5.51009L22.7001 2.71009C22.8822 2.52149 22.983 2.26889 22.9807 2.00669C22.9784 1.74449 22.8733 1.49368 22.6879 1.30827C22.5025 1.12287 22.2516 1.0177 21.9895 1.01542C21.7273 1.01314 21.4747 1.11393 21.2861 1.29609L18.2411 4.34509C16.3534 3.22391 14.1955 2.63956 12.0001 2.65509C5.80905 2.65509 2.28105 6.89309 0.729051 9.41909C0.249579 10.1946 -0.00439453 11.0883 -0.00439453 12.0001C-0.00439453 12.9119 0.249579 13.8056 0.729051 14.5811C1.63181 16.0594 2.77054 17.3798 4.10005 18.4901L1.30005 21.2901C1.20454 21.3823 1.12836 21.4927 1.07595 21.6147C1.02354 21.7367 0.995955 21.8679 0.994801 22.0007C0.993647 22.1335 1.01895 22.2652 1.06923 22.388C1.11951 22.5109 1.19376 22.6226 1.28766 22.7165C1.38155 22.8104 1.4932 22.8846 1.6161 22.9349C1.73899 22.9852 1.87067 23.0105 2.00345 23.0093C2.13623 23.0082 2.26745 22.9806 2.38946 22.9282C2.51146 22.8758 2.6218 22.7996 2.71405 22.7041L5.76605 19.6521C7.65132 20.7731 9.80672 21.3584 12.0001 21.3451C18.1911 21.3451 21.7191 17.1071 23.2711 14.5811C23.7505 13.8056 24.0045 12.9119 24.0045 12.0001C24.0045 11.0883 23.7505 10.1946 23.2711 9.41909ZM2.43305 13.5341C2.14819 13.0731 1.9973 12.542 1.9973 12.0001C1.9973 11.4582 2.14819 10.927 2.43305 10.4661C3.76705 8.30009 6.78205 4.65509 12.0001 4.65509C13.6603 4.64579 15.2973 5.04593 16.7661 5.82009L14.7531 7.83309C13.793 7.19569 12.642 6.91009 11.4953 7.02474C10.3486 7.13939 9.27692 7.64723 8.46205 8.46209C7.64719 9.27696 7.13935 10.3487 7.0247 11.4953C6.91005 12.642 7.19565 13.793 7.83305 14.7531L5.52305 17.0631C4.29815 16.0728 3.25289 14.879 2.43305 13.5341ZM15.0001 12.0001C15.0001 12.7957 14.684 13.5588 14.1214 14.1214C13.5588 14.684 12.7957 15.0001 12.0001 15.0001C11.5546 14.9984 11.1152 14.8958 10.7151 14.7001L14.7001 10.7151C14.8958 11.1153 14.9983 11.5546 15.0001 12.0001ZM9.00005 12.0001C9.00005 11.2044 9.31612 10.4414 9.87873 9.87877C10.4413 9.31616 11.2044 9.00009 12.0001 9.00009C12.4455 9.00182 12.8849 9.10438 13.2851 9.30009L9.30005 13.2851C9.10434 12.8849 9.00178 12.4456 9.00005 12.0001ZM21.5671 13.5341C20.2331 15.7001 17.2181 19.3451 12.0001 19.3451C10.3398 19.3544 8.70282 18.9543 7.23405 18.1801L9.24705 16.1671C10.2071 16.8045 11.3581 17.0901 12.5048 16.9754C13.6515 16.8608 14.7232 16.353 15.538 15.5381C16.3529 14.7232 16.8608 13.6515 16.9754 12.5049C17.0901 11.3582 16.8044 10.2072 16.1671 9.24709L18.4771 6.93709C19.7019 7.92737 20.7472 9.12114 21.5671 10.4661C21.8519 10.927 22.0028 11.4582 22.0028 12.0001C22.0028 12.542 21.8519 13.0731 21.5671 13.5341Z" fill="#F7931A"/>
</g>
<defs>
<clipPath id="clip0">
<rect width="24" height="24" fill="white"/>
</clipPath>
</defs>
</svg>
