<?xml version="1.0" encoding="UTF-8"?>
<svg width="24px" height="25px" viewBox="0 0 24 25" version="1.1" xmlns="http://www.w3.org/2000/svg" xmlns:xlink="http://www.w3.org/1999/xlink">
    <!-- Generator: Sketch 58 (84663) - https://sketch.com -->
    <title>Group 5</title>
    <desc>Created with Sketch.</desc>
    <g id="Page-1" stroke="none" stroke-width="1" fill="none" fill-rule="evenodd">
        <g id="Group-5" transform="translate(0.000000, 0.014893)" fill="#FFFEFE" fill-rule="nonzero">
            <path d="M23.437,10.4786074 L14.939,1.2858274 C14.5645,0.8803554 14.1102,0.5568054 13.6046,0.3355194 C13.0991,0.1142344 12.5533,-2.13162821e-14 12.0015,-2.13162821e-14 C11.4497,-2.13162821e-14 10.9039,0.1142344 10.3984,0.3355194 C9.89283,0.5568054 9.43852,0.8803554 9.064,1.2858274 L0.581,10.4756074 C0.208713,10.8506074 -1.27897692e-13,11.3578074 -1.27897692e-13,11.8864074 L-1.27897692e-13,20.9981074 C-1.27897692e-13,21.7943074 0.316071,22.5578074 0.87868,23.1208074 C1.44129,23.6837074 2.20435,24 3,24 L7,24 L7,17.9962074 C7.00335,17.0975074 7.24932,16.2163074 7.71192,15.4459074 C8.17451,14.6755074 8.83653,14.0445074 9.628,13.6195074 C9.678,13.5915074 9.728,13.5635074 9.78,13.5365074 C9.96671,13.4434074 10.1591,13.3622074 10.356,13.2933074 C10.491,13.2443074 10.628,13.2023074 10.769,13.1652074 C10.91,13.1282074 11.08,13.0952074 11.24,13.0652074 C11.328,13.0512074 11.41,13.0211074 11.5,13.0121074 C11.654,12.9971074 11.8,12.9941074 11.955,12.9931074 C11.971,12.9931074 11.985,12.9881074 12,12.9881074 L12.018,12.9881074 C12.3275,12.9905074 12.6362,13.0217074 12.94,13.0812074 C12.974,13.0882074 13.008,13.0912074 13.04,13.0982074 C13.325,13.1605074 13.6041,13.2475074 13.874,13.3584074 C13.912,13.3734074 13.95,13.3874074 13.988,13.4044074 C14.2462,13.5165074 14.4945,13.6504074 14.73,13.8046074 L14.841,13.8787074 C15.0696,14.0377074 15.2847,14.2154074 15.484,14.4100074 C15.516,14.4410074 15.546,14.4720074 15.577,14.5041074 C15.7722,14.7047074 15.9508,14.9209074 16.111,15.1505074 L16.179,15.2505074 C16.3364,15.4897074 16.4732,15.7417074 16.588,16.0040074 C16.601,16.0360074 16.612,16.0680074 16.625,16.1041074 C16.7393,16.3806074 16.8283,16.6670074 16.891,16.9596074 C16.891,16.9816074 16.898,17.0046074 16.902,17.0266074 C16.9663,17.3459074 16.9991,17.6706074 17,17.9962074 L17,24 L21,24 C21.7956,24 22.5587,23.6837074 23.1213,23.1208074 C23.6839,22.5578074 24,21.7943074 24,20.9981074 L24,11.8714074 C24,11.3516074 23.7983,10.8521074 23.437,10.4786074 Z" id="Path"></path>
            <path d="M12,14.9851074 C11.2044,14.9851074 10.4413,15.3012074 9.87868,15.8638074 C9.31607,16.4264074 9,17.1895074 9,17.9851074 L9,23.9851074 L15,23.9851074 L15,17.9851074 C15,17.1895074 14.6839,16.4264074 14.1213,15.8638074 C13.5587,15.3012074 12.7956,14.9851074 12,14.9851074 Z" id="Path"></path>
        </g>
    </g>
</svg>