<?xml version="1.0" encoding="UTF-8"?>
<svg width="580px" height="814px" viewBox="0 0 580 814" version="1.1" xmlns="http://www.w3.org/2000/svg" xmlns:xlink="http://www.w3.org/1999/xlink">
    <!-- Generator: Sketch 58 (84663) - https://sketch.com -->
    <title>Group</title>
    <desc>Created with Sketch.</desc>
    <g id="Page-1" stroke="none" stroke-width="1" fill="none" fill-rule="evenodd">
        <g id="Group" fill-rule="nonzero">
            <path d="M426,646.722887 L439.711861,736.490213 L439.451239,738.243966 C447.158332,742.92409 458.816595,748.41901 466.733755,744.860633 C470.478346,743.178444 473.949239,741.250523 477,739.36485 L473.64765,736.915287 L476.278277,644 L426,646.722887 Z" id="Path" fill="#FEE7B7"></path>
            <path d="M515.872588,768.34832 L476.590874,739.135054 C473.558477,741.041632 470.110327,742.990926 466.390205,744.690893 C458.522083,748.287847 446.938169,742.732008 439.280522,738 L435,776.564823 L501.997704,787 C501.997704,787 539.091518,786.544932 541.036029,784.259131 C542.980539,781.972459 544,776.105396 544,776.105396 L515.872588,768.34832 Z" id="Path" fill="#3F406E"></path>
            <path d="M173.20766,565.285488 C173.20766,565.285488 177.172662,590.21892 167.363247,597.230909 C157.557356,604.242898 149,561 149,561" id="Path" fill="#384244"></path>
            <path d="M493,337.323646 C517.338887,350.053357 538.161761,360.177613 538.161761,360.177613 C538.161761,360.177613 541.829169,368.598634 547.871909,371.260317 C557.436753,375.472125 567.422718,370.904792 569.519623,369.388402 C574.050156,366.110822 586.635935,354.877603 575.560623,353.473667 C566.498688,352.324914 594.030787,348.234209 567.505376,340.835648 C562.471065,339.431712 551.400104,336.936979 551.400104,336.936979 C551.400104,336.936979 532.633241,327.629307 511.110819,313 L493,337.323646 Z" id="Path" fill="#FEE7B7"></path>
            <path d="M396.004904,147.661705 C397.12835,196.132889 408.991658,279.948582 419.76357,292.23928 C428.149134,301.80678 463.200291,321.369712 492.9703,337 L511,312.691789 C489.427592,297.970098 465.076454,277.860798 454.212726,256.417564 C432.556298,213.677197 442.417846,166.085216 435.237149,152.804658 C428.058185,139.524964 395.541494,127.677759 396.004904,147.661705 Z" id="Path" fill="#FAD0C4"></path>
            <polyline id="Path" fill="#3F406E" points="440.356519 341 495.108464 537.346182 509 688.801647 424.340456 697 410.392738 561.119589 355.773036 414.299104 290 348.677685"></polyline>
            <path d="M265.485937,717.548099 L264,718.937893 C266.399224,726.552677 270.188798,733.947836 276.022188,735.26992 C279.696189,736.104143 285.748559,736.648428 292.495235,737 L354,664.972932 L312.534532,638 L265.485937,717.548099 Z" id="Path" fill="#FEE7B7"></path>
            <path d="M276.056674,735.208697 C270.239138,733.895736 266.457566,726.557281 264.064506,719 L238,743.798944 L282.771283,793.531231 C282.771283,793.531231 312.467416,814.648887 315.461991,813.984653 C318.4583,813.320418 323,809.318643 323,809.318643 L305.633197,786.962117 L292.008963,737.481395 L292.487402,736.925713 C285.758058,736.575073 279.72037,736.036621 276.056674,735.208697 Z" id="Path" fill="#3F406E"></path>
            <path d="M419.8884,288.041022 C419.8884,288.041022 309.072552,284.738154 297.106773,337.40565 C285.138398,390.073146 312.299366,526.439858 312.299366,526.439858 L269,662.242812 L425.194601,697 L425.194601,565.821407 L428,368.966486" id="Path" fill="#3F406E"></path>
            <path d="M446.399924,138.31158 C454.609954,119.862079 429.384895,29.3997461 412.587242,17.0536989 C395.790456,4.70770376 398.797336,-3.73040214 367.259734,1.65662679 C335.722132,7.04367306 332.620854,26.2042008 332.620854,26.2042008 C332.620854,26.2042008 275.291805,140.710578 304.09273,158 C304.09273,158 367.572373,112.205038 383.764666,126.59123" id="Path" fill="#384244"></path>
            <polygon id="Path" fill="#FEE7B7" points="352 135.533197 387.56718 162 392 145.835892 383.054816 97.822743 362.044095 87"></polygon>
            <path d="M371.680021,44.4564122 C356.055446,48.6845315 338.917719,54.3221686 338.917719,54.3221686 L332.365956,55.4730346 C332.365956,55.4730346 327.277689,97.2640133 355.047549,105.532362 C362.150737,107.649157 387.808979,102.713153 395.054162,87.9910983 C395.436587,88.0527441 395.981914,83.9020728 396.377407,83.9194378 C402.930042,81.1006626 408.586284,75.3757664 408.978292,67.0067001 C409.3703,58.6444931 404.409219,58.1038335 397.648385,57.8175713 C397.581308,57.8175713 397.516844,57.8291191 397.454123,57.8291191 C397.454123,57.8291191 396.591705,61.390422 389.824772,55.4730346 C382.732909,49.2709479 386.801083,36 386.801083,36 L378.736168,41.1678268 L371.680021,44.4564122 Z" id="Path" fill="#FEE7B7"></path>
            <path d="M445.186716,220.455872 C419.837049,247.017048 441.097726,339.980729 441.097726,339.980729 C441.097726,339.980729 334.94799,395.373354 286.949617,341.315574 C267.72955,319.669293 348.729018,126 348.729018,126 C350.282783,126.065705 363.844557,138.60841 388.351738,148.975075 C397.596637,152.884512 387.500621,129.598204 398.573782,139.98994 C398.573782,139.98994 461.91558,202.925652 445.186716,220.455872 Z" id="Path" fill="#FAD0C4"></path>
            <path d="M61.7047484,790.135162 C66.2916439,791.172983 73.3694775,791.774506 79.6827847,788.956212 L104,717.707153 L74.5707636,712 C50.0733204,739.847328 59.2960579,784.145749 61.7047484,790.135162 Z" id="Path" fill="#FEE7B7"></path>
            <path d="M80.0905646,789.310093 L80.1925862,789 C73.9737444,791.894197 66.4169127,790.878224 61.8998087,789.812778 C62.0558113,790.215634 62.1434552,790.42943 62.1434552,790.42943 L58,802.164357 C58,802.164357 101.371241,816.47102 104.730637,808.674534 C106.294107,805.05237 100.839179,800.622729 93.8655494,800.251678 C84.4011287,800.251678 80.0905646,789.310093 80.0905646,789.310093 Z" id="Path" fill="#2B2B58"></path>
            <path d="M127.108923,712.657129 C111.263461,745.849313 130.870974,786.676996 134.128727,792 C138.053151,791.937335 147.575548,791.097457 152.044648,786.832787 L156,711 L127.108923,712.657129 Z" id="Path" fill="#FEE7B7"></path>
            <path d="M98.588275,511 C98.588275,511 44.6533719,510.531553 36.1637098,529.782966 C28.1731908,538.703612 64.6291948,619.464092 45.7937279,642.592688 C56.0801499,658.211628 128,635.026627 128,635.026627" id="Path" fill="#3C57A4"></path>
            <path d="M159.52574,612 C159.52574,612 171.54838,717 169.832342,717 C168.114575,717 102,715.364631 102,715.364631 C102,715.364631 107.151572,644.68409 102,638.555769" id="Path" fill="#2B2B58"></path>
            <path d="M133,597 C130.943237,600.09388 117.683828,725 117.683828,725 L52,705.315209 C52,705.315209 59.1183915,651.4957 61.3962456,646.363733" id="Path" fill="#3F406E"></path>
            <path d="M116.438421,508 L76.4700146,538.255852 C76.4700146,538.255852 34,570.849644 34,578.329153 C34,586.255341 48.0093197,595.158695 48.0093197,595.158695 C48.0093197,595.158695 62.0604928,605.359752 69.0232992,601.235957 C72.3427797,599.270394 74.4019005,593.289034 74.4019005,593.289034 L48.0815256,686.169894 C79.3579894,686.847257 101.255302,700.1768 121.696909,702.316888 C150.651025,705.348608 171.942673,697.306646 171.942673,697.306646 C172.802225,669.476861 163.671427,555.736838 166.24749,545.914205 C167.012786,542.994803 116.438421,508 116.438421,508 Z" id="Path" fill="#7E87F1"></path>
            <path d="M34,578.793407 C34,576.379966 43,580.242364 43,580.242364 L38.0000384,587 C38.0000384,587 34,584.104763 34,578.793407 Z" id="Path" fill="#6C72BB"></path>
            <path d="M134,515.421621 C144.279244,520.619415 155.544253,533.211804 164.459596,545 C176.341794,518.849842 210.314152,457.704264 213.214942,453.884344 C219.577208,445.508772 206.887448,443 206.887448,443 C206.887448,443 141.282834,509.561753 134,515.421621 Z" id="Path" fill="#FEE7B7"></path>
            <path d="M6.01858456,655.703159 C6.4309742,652.096751 12.7013214,646 12.7013214,646 L18.5596473,647.688252 C18.5596473,647.688252 19.5937654,654.512461 18.4925446,657.561265 C16.8663597,662.06327 14.8540873,658.953558 14.8540873,658.953558 C14.8540873,658.953558 5.52955233,659.980406 6.01858456,655.703159 Z" id="Path" fill="#FEE6B6"></path>
            <path d="M22.4565609,611.006343 C22.4565609,611.006343 11,633.556726 11,650.469513 C15.4830882,657.517159 18.3774887,654.675352 33.9128636,635.90623 C51.8446137,610.066888 56.3275297,618.053988 65.7915592,600.200878 C68.557687,583.603269 42.8786956,580 42.8786956,580 C42.8786956,580 28.9317501,595.503605 22.4565609,611.006343 Z" id="Path" fill="#FEE7B7"></path>
            <path d="M118,510 C118,510 178.112283,539.181094 172.799413,590 L176,575.202091 C176,575.202091 174.811732,566.982383 173.805138,564.125395 C169.498861,551.89408 160.534261,530.666645 135.5815,513.78816" id="Path" fill="#3C57A4"></path>
            <path d="M64.0868835,627.65013 L64.0868835,623.463799 L63,612.943678 C135.120293,547.106486 73.9132683,532.533816 73.9132683,532.533816 L80.4499568,528 C80.4499568,528 107.191372,540.49905 105.958654,565.13316 C105.02331,583.814845 92.4540852,599.917319 64.08697,630" id="Path" fill="#3C57A4"></path>
            <path d="M66,433.85531 C66,433.85531 111.025682,408.184521 129.944414,444.258141 C144.611444,472.220903 140.456549,481 140.456549,481" id="Path" fill="#384244"></path>
            <path d="M59,488.264605 C59,494.488251 67.0517056,500.736046 75.8414699,505.702198 C93.5441088,506.6354 98.0351789,515.787161 98.0351789,515.787161 L98.0351789,525.624592 C98.0351789,525.624592 106.504719,543.50205 122.953597,540.702444 C130.430673,539.430288 126.76924,526.503458 126.76924,526.503458 L125.944772,508.969267 C171.305183,478.63503 111.830595,443.254431 111.830595,443.254431 C107.961538,443.082798 104.391426,443 101.080629,443 C47.7227015,443 64.0724195,464.724112 59,488.264605 Z" id="Path" fill="#FEE7B7"></path>
            <path d="M109.564446,432.95252 C109.564446,432.95252 116.070618,451.012148 111.176082,462.102264 C107.690109,470.002263 99.8237676,489.523339 98.0937429,502.134962 C96.648023,512.676708 93.6770815,503.076764 92.3134556,494.964381 C86.3246494,498.651511 82.5918748,490.673173 82.5918748,490.673173 C82.5918748,490.673173 71.0319916,490.167455 69.454057,494.711957 C67.8796654,499.255588 72.0834871,506.323458 82.0666455,506.827436 C92.0507546,507.332284 95.202303,509.352546 95.202303,509.352546 L98.0937429,516 C98.0937429,516 94.8125722,510.612054 84.1771547,508.264512 C60.6778543,503.077635 56.177889,490.673173 49.1780293,484.238103 C44.1779815,479.057319 43.1780756,466.811276 43.1780756,462.102264 C42.1780833,454.096072 45.5548288,446.109901 49.1777701,442.321801 C67.0433427,423.643299 89.423744,421.678744 109.564446,432.95252 Z" id="Path" fill="#384244"></path>
            <path d="M53.9681291,437.770006 C53.9681291,437.770006 54.8997426,439.227375 46.6893232,445.325612 C43.1824305,453.19506 33.2432502,448.379932 21.2045062,454.238887 C9.63747961,459.868095 10.6433231,464.090218 8.63160132,472.064569 C8.63160132,472.064569 6.11709683,484.26191 7.62583603,488.014138 C6.04230178,492.539699 13.157845,497.34529 15.169532,499.741583 C23.4028984,507.298923 14.6666103,511 14.6666103,511 C14.6666103,511 22.3462933,505.788669 11.6490797,503.450462 C11.6490797,503.450462 11.146158,503.754767 4.10539241,497.34529 C-0.923912108,492.18511 0.0821512326,475.348635 0.0821512326,470.657484 C1.59089661,462.214104 1.08784447,458.930038 8.63160132,445.325612 C24.2219499,433.129138 33.7093177,426.540199 53.9681291,437.770006 Z" id="Path" fill="#384244"></path>
            <path d="M152.007564,786.466636 L152.007564,786 C146.716407,790.209214 138.32425,791.116611 133.678776,791.179576 C133.931884,791.524594 134.07049,791.705728 134.07049,791.705728 L132,801.764715 C132,801.764715 177.328669,805.965304 179.94756,798.874331 C180.442583,795.728633 177.431979,794.550398 170.956208,794.550398 C160.496144,797.350215 152.007564,786.466636 152.007564,786.466636 Z" id="Path" fill="#2B2B58"></path>
            <path d="M201.743899,392.920713 L241,413 L231.726933,391.444526 C231.726933,391.444526 230.347022,371.254569 232.326402,346.027797 L201,344 C202.193718,370.527803 201.743899,392.920713 201.743899,392.920713 Z" id="Path" fill="#FEE7B7"></path>
            <path d="M352.828732,124 C352.828732,124 335.278719,124.947454 317.640601,135.748259 C274.85996,161.946711 206.029841,215.337011 200.622661,230.527485 C196.411798,242.354625 190.77572,315.991667 192.235486,348.413151 L238.265617,349 C240.243643,323.7386 244.357764,272.502392 257.905082,252.459359 C284.908159,212.511985 354,183.589061 354,183.589061 L352.828732,124 Z" id="Path" fill="#FAD0C4"></path>
            <path d="M189.192649,431.653977 C188.391576,434.921881 190.263365,436.93184 191.600233,439.95022 C192.937101,442.965158 201.488867,446.233922 204.696651,450.257282 C207.905309,454.27892 212.716986,454.027675 213.785956,457.2973 C214.854055,460.564344 223.407565,463.328898 224.211257,461.318078 C225.013203,459.308119 229.556983,434.167286 229.556983,434.167286 L232.498616,418.57978 C232.498616,418.57978 237.843469,429.643158 242.387249,432.658096 C246.931902,435.674755 248,431.150627 248,431.150627 C244.793088,430.395171 241.052127,411.793587 241.052127,411.793587 L229.289958,399.22274 L201.933907,389 C201.933907,389 189.995468,428.384352 189.192649,431.653977 Z" id="Path" fill="#FEE7B7"></path>
            <path d="M88.5693632,531.629599 C91.2484825,528.423482 97.5500606,525.508039 97.5500606,525.508039 L102.039978,531.629599 L107.029159,536.808645 L121.9967,541.046916 L126.985881,534.925355 L125.988217,526.919635 L125.988217,517.501449 C125.988217,515.147337 136.108855,521.606567 137.961906,525.977991 C139.958095,530.687084 138.461168,548.581813 138.461168,548.581813 L121.9967,541.046916 L117.506783,558 C117.506783,558 78.8429618,543.271355 88.5693632,531.629599 Z" id="Path" fill="#FFFFFF"></path>
        </g>
    </g>
</svg>