<?xml version="1.0" encoding="UTF-8"?>
<svg width="24px" height="24px" viewBox="0 0 24 24" version="1.1" xmlns="http://www.w3.org/2000/svg" xmlns:xlink="http://www.w3.org/1999/xlink">
    <!-- Generator: Sketch 58 (84663) - https://sketch.com -->
    <title>Shape</title>
    <desc>Created with Sketch.</desc>
    <g id="Page-1" stroke="none" stroke-width="1" fill="none" fill-rule="evenodd">
        <g id="ic_message" transform="translate(0.000000, -1.000000)" fill="#FFFFFF" fill-rule="nonzero">
            <path d="M19.6751,3.75802 C18.4081,2.70368 16.9364,1.923183 15.3529,1.46572 C13.7693,1.00825769 12.1081,0.883743 10.4741,1.100021 C7.45114,1.492739 4.69096,3.02119 2.754,5.37503 C0.817033,7.72887 -0.151521,10.73164 0.0450001,13.7736 C0.241521,16.8156 1.58838,19.6688 3.81211,21.7539 C6.03584,23.8389 8.96974,24.9995 12.0181,25 L19.0001,25 C20.3257,24.9984 21.5965,24.4711 22.5339,23.5338 C23.4712,22.5965 23.9985,21.3256 24.0001,20 L24.0001,12.309 L24.0001,12.246 C23.8942,10.61147 23.4561,9.01567 22.7125,7.55623 C21.9688,6.09679 20.9353,4.80438 19.6751,3.75802 Z M8.00008,8.00002 L12.0001,8.00002 C12.2653,8.00002 12.5196,8.10538 12.7072,8.29291 C12.8947,8.48045 13.0001,8.7348 13.0001,9.00002 C13.0001,9.26524 12.8947,9.51959 12.7072,9.70713 C12.5196,9.89466 12.2653,10.00002 12.0001,10.00002 L8.00008,10.00002 C7.73486,10.00002 7.48051,9.89466 7.29297,9.70713 C7.10543,9.51959 7.00008,9.26524 7.00008,9.00002 C7.00008,8.7348 7.10543,8.48045 7.29297,8.29291 C7.48051,8.10538 7.73486,8.00002 8.00008,8.00002 Z M16.0001,18 L8.00008,18 C7.73486,18 7.48051,17.8947 7.29297,17.7071 C7.10543,17.5196 7.00008,17.2652 7.00008,17 C7.00008,16.7348 7.10543,16.4805 7.29297,16.2929 C7.48051,16.1054 7.73486,16 8.00008,16 L16.0001,16 C16.2653,16 16.5196,16.1054 16.7072,16.2929 C16.8947,16.4805 17.0001,16.7348 17.0001,17 C17.0001,17.2652 16.8947,17.5196 16.7072,17.7071 C16.5196,17.8947 16.2653,18 16.0001,18 Z M16.0001,14 L8.00008,14 C7.73486,14 7.48051,13.8947 7.29297,13.7071 C7.10543,13.5196 7.00008,13.2652 7.00008,13 C7.00008,12.7348 7.10543,12.4805 7.29297,12.2929 C7.48051,12.1054 7.73486,12 8.00008,12 L16.0001,12 C16.2653,12 16.5196,12.1054 16.7072,12.2929 C16.8947,12.4805 17.0001,12.7348 17.0001,13 C17.0001,13.2652 16.8947,13.5196 16.7072,13.7071 C16.5196,13.8947 16.2653,14 16.0001,14 Z" id="Shape"></path>
        </g>
    </g>
</svg>