<svg width="36" height="41" viewBox="0 0 36 41" fill="none" xmlns="http://www.w3.org/2000/svg">
<path d="M3.05843 8.40463L15.0584 1.65463C16.8849 0.627236 19.1151 0.627234 20.9416 1.65463L32.9416 8.40463C34.8308 9.46734 36 11.4664 36 13.6341V26.8659C36 29.0336 34.8308 31.0327 32.9416 32.0954L20.9416 38.8454C19.1151 39.8728 16.8849 39.8728 15.0584 38.8454L3.05843 32.0954C1.16917 31.0327 0 29.0336 0 26.8659V13.6341C0 11.4664 1.16917 9.46734 3.05843 8.40463Z" fill="#85C6DA"/>
<g clip-path="url(#clip0)">
<path d="M23.8333 17.02V15.8333C23.8333 14.2862 23.2187 12.8025 22.1247 11.7085C21.0308 10.6146 19.5471 10 18 10C16.4529 10 14.9691 10.6146 13.8752 11.7085C12.7812 12.8025 12.1666 14.2862 12.1666 15.8333V17.02C11.4244 17.3439 10.7927 17.8771 10.3487 18.5543C9.90471 19.2316 9.66769 20.0235 9.66663 20.8333V25.8333C9.66795 26.938 10.1074 27.997 10.8885 28.7782C11.6696 29.5593 12.7286 29.9987 13.8333 30H22.1666C23.2713 29.9987 24.3303 29.5593 25.1114 28.7782C25.8926 27.997 26.332 26.938 26.3333 25.8333V20.8333C26.3322 20.0235 26.0952 19.2316 25.6512 18.5543C25.2072 17.8771 24.5755 17.3439 23.8333 17.02ZM13.8333 15.8333C13.8333 14.7283 14.2723 13.6685 15.0537 12.8871C15.8351 12.1057 16.8949 11.6667 18 11.6667C19.105 11.6667 20.1648 12.1057 20.9462 12.8871C21.7276 13.6685 22.1666 14.7283 22.1666 15.8333V16.6667H13.8333V15.8333ZM24.6666 25.8333C24.6666 26.4964 24.4032 27.1323 23.9344 27.6011C23.4656 28.0699 22.8297 28.3333 22.1666 28.3333H13.8333C13.1703 28.3333 12.5344 28.0699 12.0655 27.6011C11.5967 27.1323 11.3333 26.4964 11.3333 25.8333V20.8333C11.3333 20.1703 11.5967 19.5344 12.0655 19.0656C12.5344 18.5967 13.1703 18.3333 13.8333 18.3333H22.1666C22.8297 18.3333 23.4656 18.5967 23.9344 19.0656C24.4032 19.5344 24.6666 20.1703 24.6666 20.8333V25.8333Z" fill="#FCFCFE"/>
<path d="M18 21.6665C17.7789 21.6665 17.567 21.7543 17.4107 21.9106C17.2544 22.0669 17.1666 22.2788 17.1666 22.4998V24.1665C17.1666 24.3875 17.2544 24.5995 17.4107 24.7558C17.567 24.912 17.7789 24.9998 18 24.9998C18.221 24.9998 18.4329 24.912 18.5892 24.7558C18.7455 24.5995 18.8333 24.3875 18.8333 24.1665V22.4998C18.8333 22.2788 18.7455 22.0669 18.5892 21.9106C18.4329 21.7543 18.221 21.6665 18 21.6665Z" fill="#FCFCFE"/>
</g>
<defs>
<clipPath id="clip0">
<rect width="20" height="20" fill="white" transform="translate(8 10)"/>
</clipPath>
</defs>
</svg>
