<?xml version="1.0" encoding="UTF-8"?>
<svg width="24px" height="24px" viewBox="0 0 24 24" version="1.1" xmlns="http://www.w3.org/2000/svg" xmlns:xlink="http://www.w3.org/1999/xlink">
    <!-- Generator: Sketch 58 (84663) - https://sketch.com -->
    <title>Shape</title>
    <desc>Created with Sketch.</desc>
    <g id="Page-1" stroke="none" stroke-width="1" fill="none" fill-rule="evenodd">
        <g id="fi-rr-school" transform="translate(0.000000, -1.000000)" fill="#FFFFFF" fill-rule="nonzero">
            <path d="M19,7.00007 L14.321,7.00007 C13.9224,6.71598 13.4744,6.50846 13,6.38807 L13,6.00007 L16.53,4.34807 C16.6747,4.25838 16.7941,4.13324 16.8769,3.98449 C16.9598,3.83574 17.0032,3.66831 17.0032,3.49807 C17.0032,3.32782 16.9598,3.16039 16.8769,3.01164 C16.7941,2.86289 16.6747,2.73775 16.53,2.64807 L13.33,1.148067 C13.0802,1.0313185 12.8049,0.9795831 12.5297,0.99766254 C12.2545,1.015742 11.9883,1.10305 11.7559,1.251483 C11.5235,1.399916 11.3323,1.604662 11.2002,1.846717 C11.068,2.08877 10.9992,2.36029 11,2.63607 L11,6.38807 C10.5258,6.50829 10.0782,6.71583 9.68,7.00007 L5,7.00007 C3.67441,7.00165 2.40356,7.52895 1.46622,8.46629 C0.528882,9.40362 0.00158786,10.67447 0,12.0001 L0,22.0001 C0,22.7957 0.31607,23.5588 0.87868,24.1214 C1.44129,24.684 2.20435,25.0001 3,25.0001 L21,25.0001 C21.7956,25.0001 22.5587,24.684 23.1213,24.1214 C23.6839,23.5588 24,22.7957 24,22.0001 L24,12.0001 C23.9984,10.67447 23.4711,9.40362 22.5338,8.46629 C21.5964,7.52895 20.3256,7.00165 19,7.00007 Z M21.816,11.0001 L19.657,11.0001 C18.8618,10.99804 18.0995,10.68214 17.536,10.12107 L16.414,9.00007 L19,9.00007 C19.6183,9.00263 20.2206,9.19615 20.7247,9.55415 C21.2288,9.91216 21.6099,10.41716 21.816,11.0001 Z M5,9.00007 L7.586,9.00007 L6.464,10.12107 C5.90047,10.68214 5.13821,10.99804 4.343,11.0001 L2.184,11.0001 C2.39008,10.41716 2.77123,9.91216 3.2753,9.55415 C3.77937,9.19615 4.38174,9.00263 5,9.00007 Z M13,23.0001 L11,23.0001 L11,20.0001 C11,19.7348 11.1054,19.4805 11.2929,19.293 C11.4804,19.1054 11.7348,19.0001 12,19.0001 C12.2652,19.0001 12.5196,19.1054 12.7071,19.293 C12.8946,19.4805 13,19.7348 13,20.0001 L13,23.0001 Z M21,23.0001 L15,23.0001 L15,20.0001 C15,19.2044 14.6839,18.4414 14.1213,17.8787 C13.5587,17.3161 12.7956,17.0001 12,17.0001 C11.2044,17.0001 10.4413,17.3161 9.87868,17.8787 C9.31607,18.4414 9,19.2044 9,20.0001 L9,23.0001 L3,23.0001 C2.73478,23.0001 2.48043,22.8947 2.29289,22.7072 C2.10536,22.5196 2,22.2653 2,22.0001 L2,13.0001 L4.343,13.0001 C4.99982,13.0017 5.65043,12.873 6.25721,12.6216 C6.86398,12.3701 7.41487,12.0008 7.878,11.5351 L10.586,8.82807 C10.9611,8.45312 11.4697,8.24249 12,8.24249 C12.5303,8.24249 13.0389,8.45312 13.414,8.82807 L16.122,11.5351 C16.5851,12.0008 17.136,12.3701 17.7428,12.6216 C18.3496,12.873 19.0002,13.0017 19.657,13.0001 L22,13.0001 L22,22.0001 C22,22.2653 21.8946,22.5196 21.7071,22.7072 C21.5196,22.8947 21.2652,23.0001 21,23.0001 Z M7,16.0001 C7,16.2653 6.89464,16.5196 6.70711,16.7072 C6.51957,16.8947 6.26522,17.0001 6,17.0001 L5,17.0001 C4.73478,17.0001 4.48043,16.8947 4.29289,16.7072 C4.10536,16.5196 4,16.2653 4,16.0001 C4,15.7348 4.10536,15.4805 4.29289,15.293 C4.48043,15.1054 4.73478,15.0001 5,15.0001 L6,15.0001 C6.26522,15.0001 6.51957,15.1054 6.70711,15.293 C6.89464,15.4805 7,15.7348 7,16.0001 Z M7,20.0001 C7,20.2653 6.89464,20.5196 6.70711,20.7072 C6.51957,20.8947 6.26522,21.0001 6,21.0001 L5,21.0001 C4.73478,21.0001 4.48043,20.8947 4.29289,20.7072 C4.10536,20.5196 4,20.2653 4,20.0001 C4,19.7348 4.10536,19.4805 4.29289,19.293 C4.48043,19.1054 4.73478,19.0001 5,19.0001 L6,19.0001 C6.26522,19.0001 6.51957,19.1054 6.70711,19.293 C6.89464,19.4805 7,19.7348 7,20.0001 Z M20,16.0001 C20,16.2653 19.8946,16.5196 19.7071,16.7072 C19.5196,16.8947 19.2652,17.0001 19,17.0001 L18,17.0001 C17.7348,17.0001 17.4804,16.8947 17.2929,16.7072 C17.1054,16.5196 17,16.2653 17,16.0001 C17,15.7348 17.1054,15.4805 17.2929,15.293 C17.4804,15.1054 17.7348,15.0001 18,15.0001 L19,15.0001 C19.2652,15.0001 19.5196,15.1054 19.7071,15.293 C19.8946,15.4805 20,15.7348 20,16.0001 Z M20,20.0001 C20,20.2653 19.8946,20.5196 19.7071,20.7072 C19.5196,20.8947 19.2652,21.0001 19,21.0001 L18,21.0001 C17.7348,21.0001 17.4804,20.8947 17.2929,20.7072 C17.1054,20.5196 17,20.2653 17,20.0001 C17,19.7348 17.1054,19.4805 17.2929,19.293 C17.4804,19.1054 17.7348,19.0001 18,19.0001 L19,19.0001 C19.2652,19.0001 19.5196,19.1054 19.7071,19.293 C19.8946,19.4805 20,19.7348 20,20.0001 Z M13.9999969,13.0001 C13.9999969,13.3956 13.8827,13.7823 13.6629,14.1112 C13.4432,14.4401 13.1308,14.6965 12.7654,14.8478 C12.3999,14.9992 11.9978,15.0388 11.6098,14.9616 C11.2219,14.8845 10.8655,14.694 10.5858,14.4143 C10.3061,14.1346 10.1156,13.7782 10.0384,13.3902 C9.96126,13.0023 10.0009,12.6002 10.1522,12.2347 C10.3036,11.8692 10.56,11.5569 10.8889,11.3371 C11.2178,11.1174 11.6044,11.0001 11.9999969,11.0001 C12.5304,11.0001 13.0391,11.2108 13.4142,11.5859 C13.7893,11.9609 13.9999969,12.4696 13.9999969,13.0001 Z" id="Shape"></path>
        </g>
    </g>
</svg>